<?xml version="1.0" encoding="utf-8"?>
<!-- Generator: Adobe Illustrator 16.2.1, SVG Export Plug-In . SVG Version: 6.00 Build 0)  -->
<!DOCTYPE svg PUBLIC "-//W3C//DTD SVG 1.1//EN" "http://www.w3.org/Graphics/SVG/1.1/DTD/svg11.dtd">
<svg version="1.1" id="Layer_1" xmlns="http://www.w3.org/2000/svg" xmlns:xlink="http://www.w3.org/1999/xlink" x="0px" y="0px"
	 width="130px" height="139px" viewBox="-3 -7.5 130 139" enable-background="new -3 -7.5 130 139" xml:space="preserve">
<g fill="#E53451">
	<path d="M61.031,55.388c-40.15,0-62.707,36.068-62.707,36.068s22.319,36.067,62.707,36.067c38.681,0,63.613-36.067,63.613-36.067
		S99.712,55.388,61.031,55.388z M61.324,118.36c-14.858,0-26.903-12.045-26.903-26.904c0-14.857,12.044-26.902,26.903-26.902
		c14.858,0,26.904,12.044,26.904,26.902S76.184,118.36,61.324,118.36z"/>
	<path d="M61.219,91.456l5.646-13.084c-1.702-0.721-3.573-1.122-5.54-1.122c-7.845,0-14.203,6.361-14.203,14.206
		c0,7.847,6.358,14.206,14.203,14.206c7.844,0,14.207-6.359,14.207-14.206c0-2.013-0.426-3.929-1.185-5.666L61.219,91.456z"/>
	<g>
		<g>
			<path d="M66.961,24.724c-0.102,0.866-0.896,1.574-1.77,1.574h-8.232c-0.872,0-1.668-0.708-1.77-1.574L51.956-3.041
				c-0.101-0.866,0.53-1.575,1.401-1.575h15.436c0.872,0,1.503,0.708,1.402,1.575L66.961,24.724z"/>
		</g>
		<circle cx="61.076" cy="37.151" r="7.761"/>
	</g>
	<g>
		<g>
			<path d="M34.232,27.487c0.283,0.825-0.128,1.808-0.915,2.185l-7.424,3.559c-0.786,0.376-1.81,0.082-2.275-0.656L8.704,8.934
				C8.238,8.196,8.5,7.285,9.287,6.908l13.919-6.67c0.787-0.376,1.662-0.01,1.945,0.814L34.232,27.487z"/>
		</g>
		<circle cx="34.382" cy="41.417" r="7.761"/>
	</g>
	<g>
		<g>
			<path d="M87.601,27.487c-0.284,0.825,0.127,1.808,0.913,2.185l7.425,3.559c0.786,0.376,1.81,0.082,2.275-0.656l14.915-23.64
				c0.465-0.737,0.203-1.649-0.584-2.026l-13.919-6.67c-0.786-0.376-1.662-0.01-1.944,0.814L87.601,27.487z"/>
		</g>
		<circle cx="87.451" cy="41.417" r="7.761"/>
	</g>
</g>
</svg>
