<?xml version="1.0" encoding="utf-8"?>
<!-- Generator: Adobe Illustrator 16.2.1, SVG Export Plug-In . SVG Version: 6.00 Build 0)  -->
<!DOCTYPE svg PUBLIC "-//W3C//DTD SVG 1.1//EN" "http://www.w3.org/Graphics/SVG/1.1/DTD/svg11.dtd">
<svg version="1.1" id="Layer_1" xmlns="http://www.w3.org/2000/svg" xmlns:xlink="http://www.w3.org/1999/xlink" x="0px" y="0px"
	 width="61.167px" height="136.167px" viewBox="0 0 61.167 136.167" enable-background="new 0 0 61.167 136.167"
	 xml:space="preserve">
<g>
	<path fill="#E53451" d="M22.036,132.178c-0.217-0.141-0.144-1.547,0.211-4.215c0.354-2.67,0.948-5.951,1.782-9.838
		c0.835-3.885,1.741-8.109,2.711-12.676c0.969-4.564,1.816-8.822,2.542-12.779c0.726-3.955,1.355-7.288,1.889-10
		c0.534-2.707,0.673-4.221,0.422-4.537c-0.292-0.494-1.837-0.997-4.634-1.512s-5.891-1.102-9.276-1.767
		c-3.391-0.664-6.508-1.387-9.362-2.165c-2.854-0.779-4.555-1.575-5.099-2.386c-0.292-0.49,0.335-2.525,1.89-6.102
		c1.551-3.576,3.601-7.862,6.144-12.858c2.544-4.992,5.39-10.329,8.53-16.009c3.138-5.676,6.097-10.897,8.876-15.663
		c2.78-4.766,5.134-8.701,7.067-11.802c1.93-3.1,3.001-4.584,3.219-4.447c0.217,0.14,0.148,1.549-0.207,4.219
		c-0.354,2.669-0.953,5.947-1.788,9.833c-0.838,3.886-1.694,8.104-2.574,12.651c-0.88,4.546-1.731,8.805-2.547,12.78
		c-0.814,3.975-1.489,7.317-2.023,10.024c-0.532,2.711-0.69,4.136-0.476,4.272c0.256,0.319,1.781,0.732,4.579,1.247
		c2.797,0.515,5.886,1.103,9.276,1.767c3.386,0.665,6.552,1.377,9.495,2.137s4.614,1.652,5.02,2.675
		c0.331,0.673-0.335,2.763-1.994,6.269c-1.659,3.51-3.763,7.761-6.307,12.753c-2.543,4.995-5.344,10.323-8.392,15.979
		c-3.051,5.662-5.955,10.918-8.717,15.77c-2.762,4.855-5.109,8.836-7.039,11.936C23.322,130.836,22.25,132.318,22.036,132.178z"/>
</g>
</svg>
