<?xml version="1.0" encoding="utf-8"?>
<!-- Generator: Adobe Illustrator 16.2.1, SVG Export Plug-In . SVG Version: 6.00 Build 0)  -->
<!DOCTYPE svg PUBLIC "-//W3C//DTD SVG 1.1//EN" "http://www.w3.org/Graphics/SVG/1.1/DTD/svg11.dtd">
<svg version="1.1" id="Layer_1" xmlns="http://www.w3.org/2000/svg" xmlns:xlink="http://www.w3.org/1999/xlink" x="0px" y="0px"
	 width="130px" height="99.33px" viewBox="0 0 130 99.33" enable-background="new 0 0 130 99.33" xml:space="preserve">
<g>
	<path fill="#E53451" d="M64.344,44.941c-7.927,0-14.352,6.426-14.352,14.352c0,7.927,6.426,14.353,14.352,14.353
		c7.928,0,14.353-6.426,14.353-14.353C78.696,51.367,72.271,44.941,64.344,44.941z M64.344,66.871c-4.185,0-7.577-3.394-7.577-7.579
		s3.392-7.579,7.577-7.579c1.049,0,2.049,0.214,2.956,0.599l-3.012,6.98l7.003-3.023c0.404,0.927,0.632,1.949,0.632,3.023
		C71.923,63.478,68.528,66.871,64.344,66.871z"/>
	<path fill="#E53451" d="M108.827,49.094c1.319-2.958,2.053-6.234,2.053-9.683c0-13.151-10.659-23.812-23.811-23.812
		c-4.206,0-8.155,1.092-11.584,3.006C70.644,9.238,60.868,2.834,49.596,2.834c-16.086,0-29.125,13.04-29.125,29.126
		c0,4.758,1.141,9.25,3.165,13.216C11.109,45.489,1.052,55.739,1.052,68.338c0,12.795,10.373,23.169,23.169,23.169l80.318-0.032
		c0.649,0.06,1.305,0.092,1.969,0.092c11.764,0,21.299-9.538,21.299-21.3C127.807,59.288,119.499,50.25,108.827,49.094z
		 M64.188,78.533c-21.545,0-33.452-19.241-33.452-19.241s12.033-19.241,33.452-19.241c20.635,0,33.937,19.241,33.937,19.241
		S84.822,78.533,64.188,78.533z"/>
</g>
</svg>
