<?xml version="1.0" encoding="utf-8"?>
<!-- Generator: Adobe Illustrator 16.2.1, SVG Export Plug-In . SVG Version: 6.00 Build 0)  -->
<!DOCTYPE svg PUBLIC "-//W3C//DTD SVG 1.1//EN" "http://www.w3.org/Graphics/SVG/1.1/DTD/svg11.dtd">
<svg version="1.1" id="Layer_1" xmlns="http://www.w3.org/2000/svg" xmlns:xlink="http://www.w3.org/1999/xlink" x="0px" y="0px"
	 width="130px" height="170px" viewBox="-3 -4 130 170" enable-background="new -3 -4 130 170" xml:space="preserve">
<g>
	<path fill="#FFFFFF" d="M58.738,58.902c-6.367,4.16-7.961-8.916,0-5.622c-1.416-2.932-0.745-5.37,0.533-6.809
		c-2.928-1.497-3.304-5.4-1.132-7.521c-0.656-0.536-1.055-1.69-1.09-4.023c-15.7,1.368-31.233,8.893-41.288,16.158
		c1.21,3.084,0,5.239,0.108,9.115c0.756-1.405,3.996-2.485,5.51,0.108c1.462,2.511,0,5.08-2.7,5.51
		c0.21,3.238,4.461,5.93,8.749,4.322c5.184-1.947,5.617-6.376,4.644-7.456c-5.832,3.676-8.317-7.669-0.219-6.376
		c-1.835-2.266-1.401-5.293,1.843-6.699c3.52,0.232,4.948,2.932,3.982,5.686c7.191-3.949,8.677,7.566,1.945,6.079
		c-0.549,1.342,3.034,7.144,10.026,5.88C54.423,66.39,59.264,62.899,58.738,58.902z"/>
	<path fill="#FFFFFF" d="M36.824,74.769c-7.165,1.255-5.831,8.874,1.338,7.624C45.325,81.133,44.097,73.501,36.824,74.769z"/>
	<path fill="#FFFFFF" d="M61.877,110.119c-12.085,0-21.881,9.796-21.881,21.88c0,12.085,9.797,21.881,21.881,21.881
		c12.086,0,21.882-9.797,21.881-21.881C83.758,119.915,73.962,110.119,61.877,110.119z M61.877,143.553
		c-6.38,0-11.552-5.173-11.552-11.554s5.172-11.554,11.552-11.554c1.6,0,3.122,0.326,4.506,0.912l-4.592,10.642l10.678-4.608
		c0.616,1.413,0.963,2.971,0.963,4.608C73.432,138.38,68.257,143.553,61.877,143.553z"/>
	<path fill="#FFFFFF" d="M61.998,73.385c-4.385,0-7.944-0.996-7.944,3.667c0,4.662,3.559,3.669,7.944,3.669
		c4.385,0,7.943,0.992,7.943-3.669C69.941,72.389,66.383,73.385,61.998,73.385z"/>
	<path fill="#FFFFFF" d="M87.167,74.769c-7.271-1.268-8.504,6.364-1.334,7.624C93.002,83.643,94.338,76.023,87.167,74.769z"/>
	<path fill="#FFFFFF" d="M-3-4v170h130V-4H-3z M61.638,161.333c-32.847,0-51-29.335-51-29.335s18.346-29.334,51-29.334
		c31.459,0,51.738,29.334,51.738,29.334S93.098,161.333,61.638,161.333z M118.766,53.067c-0.394,1.927-2.061,3.694-3.611,3.366
		c0.902,1.239-0.313,2.96-3.188,6.413c1.892,2.323-1.028,5.888-3.083,5.024c-1.076,3.241-1.727,7.348-3.668,7.457
		c0.212,3.022-0.38,9.507-2.542,13.18c4.646,2.272,0.705,10.05-2.54,8.646c-5.855-2.537-23.443-3.891-38.137-3.891
		c-14.696,0-32.28,1.354-38.134,3.891c-3.24,1.404-7.187-6.373-2.541-8.646c-2.155-3.674-2.753-10.158-2.534-13.18
		c-1.946-0.11-2.593-4.217-3.678-7.457c-2.055,0.864-4.966-2.701-3.08-5.024c-2.877-3.454-4.09-5.175-3.193-6.413
		c-1.55,0.324-3.213-1.439-3.604-3.368c-6.414-0.946-6.031-10.971,1.016-10.919c2.803,0.021,4.53,1.574,5.205,3.506
		c0.331-0.234,0.669-0.472,1.01-0.705c-3.578-2.816-2.368-9.905,3.56-9.861c3.202,0.024,4.998,2.049,5.428,4.354
		c0.309-0.167,0.616-0.335,0.928-0.502c-2.665-3.133-1.219-9.217,4.273-9.175c3.302,0.024,5.108,2.178,5.465,4.575
		c0.305-0.127,0.618-0.253,0.926-0.38c-2.111-3.238-0.543-8.69,4.657-8.654c3.559,0.024,5.384,2.528,5.525,5.138
		c0.284-0.081,0.568-0.159,0.851-0.237c-1.759-3.268-0.117-8.314,4.888-8.279c4.02,0.031,5.826,3.222,5.49,6.16
		c0.359-0.046,0.72-0.092,1.075-0.134c-0.795-2.595-0.11-5.668,2.051-7.444c0.648-2.481,1.149-5.677,1.305-7.225
		c-2.343,0.241-4.825,1.268-6.502,2.405V4.667c1.677,1.129,4.159,2.158,6.502,2.4c-0.238-2.35-1.265-4.832-2.401-6.509h11.025
		c-1.133,1.676-2.159,4.159-2.405,6.509c2.349-0.242,4.834-1.271,6.508-2.4v11.022c-1.674-1.137-4.159-2.164-6.508-2.405
		c0.158,1.536,0.655,4.699,1.297,7.175c2.23,1.768,2.925,4.873,2.099,7.5c0.347,0.038,0.69,0.081,1.042,0.125
		c-0.338-2.936,1.466-6.127,5.491-6.158c5.008-0.035,6.645,5.011,4.888,8.276c0.281,0.08,0.568,0.156,0.85,0.237
		c0.146-2.608,1.965-5.112,5.526-5.136c5.203-0.036,6.769,5.415,4.658,8.654c0.31,0.127,0.619,0.253,0.927,0.382
		c0.355-2.396,2.162-4.553,5.465-4.576c5.496-0.042,6.94,6.044,4.271,9.177c0.316,0.168,0.621,0.336,0.928,0.502
		c0.434-2.307,2.227-4.332,5.43-4.355c5.928-0.044,7.143,7.045,3.56,9.861c0.342,0.234,0.682,0.47,1.007,0.708
		c0.68-1.937,2.404-3.489,5.206-3.51C124.799,42.094,125.18,52.121,118.766,53.067z"/>
	<path fill="#FFFFFF" d="M66.948,34.928c-0.032,2.31-0.427,3.461-1.073,4.004c2.213,2.117,1.809,6.044-1.148,7.544
		c1.275,1.438,1.949,3.877,0.533,6.805c7.958-3.294,6.367,9.782,0,5.622c-0.525,3.997,4.313,7.488,9.09,8.352
		c6.987,1.263,10.571-4.538,10.023-5.881c-6.732,1.487-5.25-10.028,1.941-6.079c-0.965-2.755,0.467-5.454,3.987-5.686
		c3.24,1.406,3.679,4.433,1.835,6.699c8.107-1.293,5.621,10.052-0.21,6.376c-0.977,1.08-0.543,5.51,4.644,7.456
		c4.289,1.608,8.537-1.085,8.753-4.322c-2.699-0.43-4.169-2.999-2.699-5.51c1.512-2.593,4.753-1.513,5.505-0.108
		c0.107-3.879-1.104-6.031,0.107-9.118C98.182,43.821,82.646,36.296,66.948,34.928z"/>
</g>
</svg>
