<?xml version="1.0" encoding="utf-8"?>
<!-- Generator: Adobe Illustrator 16.2.1, SVG Export Plug-In . SVG Version: 6.00 Build 0)  -->
<!DOCTYPE svg PUBLIC "-//W3C//DTD SVG 1.1//EN" "http://www.w3.org/Graphics/SVG/1.1/DTD/svg11.dtd">
<svg version="1.1" id="Layer_1" xmlns="http://www.w3.org/2000/svg" xmlns:xlink="http://www.w3.org/1999/xlink" x="0px" y="0px"
	 width="130px" height="170px" viewBox="0 0 130 170" enable-background="new 0 0 130 170" xml:space="preserve">
<polygon fill="#FFFFFF" points="2.167,108.5 4.5,136.167 21.5,134.5 39.5,110.834 62.007,106.834 84.5,113.834 97.834,130.167 
	123.319,134.167 130,0 0.678,0 "/>
<g>
	<path fill="#E53451" d="M61.638,102.664c-32.654,0-51,29.334-51,29.334s18.153,29.335,51,29.335
		c31.459,0,51.738-29.335,51.738-29.335S93.098,102.664,61.638,102.664z M61.877,153.88c-12.084,0-21.881-9.796-21.881-21.881
		c0-12.084,9.796-21.88,21.881-21.88s21.881,9.796,21.881,21.88C83.759,144.083,73.963,153.88,61.877,153.88z"/>
	<path fill="#E53451" d="M117.747,42.146c-2.802,0.021-4.526,1.574-5.206,3.51c-0.325-0.238-0.665-0.474-1.007-0.708
		c3.583-2.816,2.368-9.905-3.56-9.861c-3.203,0.023-4.996,2.048-5.431,4.355c-0.308-0.166-0.61-0.334-0.928-0.502
		c2.669-3.133,1.225-9.219-4.271-9.177c-3.304,0.023-5.109,2.18-5.466,4.576c-0.308-0.129-0.616-0.255-0.927-0.382
		c2.109-3.239,0.545-8.69-4.658-8.654c-3.562,0.024-5.381,2.528-5.525,5.136c-0.281-0.081-0.568-0.157-0.851-0.237
		c1.757-3.265,0.12-8.311-4.888-8.276c-4.025,0.031-5.829,3.222-5.491,6.158c-0.353-0.044-0.694-0.087-1.042-0.125
		c0.826-2.627,0.132-5.732-2.1-7.5c-0.642-2.476-1.139-5.639-1.296-7.175c2.349,0.241,4.833,1.268,6.507,2.405V4.667
		c-1.674,1.129-4.158,2.158-6.507,2.4c0.246-2.35,1.272-4.833,2.405-6.509H56.484c1.136,1.677,2.163,4.159,2.401,6.509
		c-2.343-0.242-4.825-1.271-6.502-2.4v11.021c1.677-1.137,4.159-2.164,6.502-2.405c-0.156,1.548-0.657,4.744-1.305,7.225
		c-2.161,1.776-2.846,4.849-2.051,7.444c-0.355,0.042-0.716,0.088-1.075,0.134c0.336-2.938-1.47-6.129-5.49-6.16
		c-5.005-0.035-6.647,5.011-4.888,8.279c-0.283,0.078-0.567,0.156-0.851,0.237c-0.141-2.61-1.966-5.114-5.525-5.138
		c-5.2-0.036-6.768,5.416-4.657,8.654c-0.308,0.127-0.621,0.253-0.926,0.38c-0.357-2.397-2.163-4.551-5.465-4.575
		c-5.492-0.042-6.938,6.042-4.273,9.175c-0.312,0.167-0.619,0.335-0.928,0.502c-0.43-2.305-2.226-4.33-5.428-4.354
		c-5.928-0.044-7.138,7.045-3.56,9.861c-0.341,0.233-0.679,0.471-1.01,0.705c-0.675-1.932-2.402-3.485-5.205-3.506
		c-7.047-0.052-7.43,9.973-1.016,10.919c0.391,1.929,2.054,3.692,3.604,3.368c-0.897,1.238,0.316,2.959,3.193,6.413
		c-1.886,2.323,1.025,5.888,3.08,5.024c1.085,3.24,1.732,7.347,3.678,7.457c-0.219,3.022,0.379,9.506,2.534,13.18
		c-4.646,2.272-0.699,10.05,2.541,8.646c5.854-2.536,23.438-3.891,38.134-3.891c14.693,0,32.281,1.354,38.137,3.891
		c3.245,1.404,7.186-6.372,2.54-8.646c2.162-3.673,2.754-10.158,2.542-13.18c1.941-0.109,2.592-4.216,3.668-7.457
		c2.055,0.864,4.975-2.701,3.083-5.024c2.875-3.453,4.091-5.174,3.188-6.413c1.551,0.328,3.218-1.439,3.611-3.366
		C125.18,52.121,124.799,42.094,117.747,42.146z M38.162,82.393c-7.169,1.25-8.503-6.369-1.338-7.624
		C44.097,73.501,45.325,81.133,38.162,82.393z M39.623,61.374c6.732,1.487,5.246-10.028-1.945-6.079
		c0.966-2.754-0.462-5.454-3.982-5.686c-3.244,1.406-3.678,4.433-1.843,6.699c-8.098-1.293-5.613,10.052,0.219,6.376
		c0.973,1.08,0.54,5.509-4.644,7.456c-4.288,1.608-8.539-1.084-8.749-4.322c2.7-0.43,4.162-2.999,2.7-5.51
		c-1.514-2.593-4.754-1.513-5.51-0.108c-0.108-3.876,1.102-6.031-0.108-9.115c10.055-7.265,25.588-14.79,41.288-16.158
		c0.035,2.333,0.434,3.487,1.09,4.023c-2.172,2.121-1.796,6.024,1.132,7.521c-1.278,1.439-1.949,3.877-0.533,6.809
		c-7.961-3.294-6.367,9.782,0,5.622c0.526,3.997-4.315,7.488-9.089,8.352C42.657,68.518,39.074,62.716,39.623,61.374z
		 M61.998,80.721c-4.385,0-7.944,0.993-7.944-3.669c0-4.663,3.559-3.667,7.944-3.667c4.385,0,7.943-0.996,7.943,3.667
		C69.941,81.713,66.383,80.721,61.998,80.721z M85.833,82.393c-7.17-1.26-5.937-8.892,1.334-7.624
		C94.338,76.023,93.002,83.643,85.833,82.393z M108.129,60.2c-0.752-1.405-3.993-2.485-5.505,0.108c-1.47,2.511,0,5.08,2.699,5.51
		c-0.216,3.237-4.464,5.93-8.753,4.322c-5.188-1.946-5.62-6.376-4.645-7.456c5.831,3.676,8.317-7.669,0.21-6.376
		c1.845-2.266,1.405-5.293-1.835-6.699c-3.521,0.232-4.951,2.931-3.986,5.686c-7.191-3.949-8.674,7.566-1.941,6.079
		c0.548,1.343-3.036,7.144-10.023,5.881c-4.775-0.864-9.615-4.355-9.09-8.352c6.367,4.16,7.958-8.916,0-5.622
		c1.416-2.928,0.742-5.367-0.533-6.805c2.957-1.5,3.361-5.427,1.148-7.544c0.646-0.543,1.041-1.694,1.073-4.004
		c15.698,1.368,31.233,8.893,41.288,16.154C107.025,54.169,108.236,56.321,108.129,60.2z"/>
	<path fill="none" d="M61.791,131.999"/>
	<path fill="#E53451" d="M61.791,131.999l4.592-10.642c-1.384-0.586-2.906-0.912-4.506-0.912c-6.38,0-11.552,5.173-11.552,11.554
		s5.172,11.554,11.552,11.554s11.555-5.173,11.555-11.554c0-1.638-0.347-3.195-0.963-4.608L61.791,131.999z"/>
</g>
</svg>
