<?xml version="1.0" encoding="utf-8"?>
<!-- Generator: Adobe Illustrator 16.2.1, SVG Export Plug-In . SVG Version: 6.00 Build 0)  -->
<!DOCTYPE svg PUBLIC "-//W3C//DTD SVG 1.1//EN" "http://www.w3.org/Graphics/SVG/1.1/DTD/svg11.dtd">
<svg version="1.1" id="Layer_1" xmlns="http://www.w3.org/2000/svg" xmlns:xlink="http://www.w3.org/1999/xlink" x="0px" y="0px"
	 width="130px" height="153.557px" viewBox="0 0 130 153.557" enable-background="new 0 0 130 153.557" xml:space="preserve">
<g fill="#FFF">
	<path d="M89.486,77.069c10.639-7.524,17.591-19.914,17.591-33.934c0-22.946-18.602-41.547-41.548-41.547
		c-22.946,0-41.547,18.602-41.547,41.547c0,13.921,6.854,26.233,17.363,33.772C18.659,87.464,0,111.564,0,137.383
		c0,0,39.04,3.628,65.25,16.174c26.211-12.546,65.25-16.174,65.25-16.174C130.5,111.69,112.022,87.706,89.486,77.069z
		 M30.847,43.135c0,0,12.385-19.804,34.432-19.804c21.24,0,34.931,19.804,34.931,19.804S86.52,62.941,65.279,62.941
		C43.102,62.941,30.847,43.135,30.847,43.135z"/>
	<path d="M80.215,43.137c0-8.16-6.616-14.775-14.775-14.775c-8.156,0-14.771,6.615-14.771,14.775
		c0,8.158,6.615,14.775,14.771,14.775C73.599,57.912,80.216,51.295,80.215,43.137z M57.641,43.137c0-4.307,3.493-7.802,7.798-7.802
		c1.082,0,2.111,0.221,3.044,0.618l-3.1,7.184l7.207-3.109c0.415,0.953,0.65,2.003,0.65,3.109c0,4.308-3.493,7.802-7.802,7.802
		C61.134,50.939,57.641,47.445,57.641,43.137z"/>
</g>
</svg>
